<svg width="1024" height="1024" viewBox="0 0 1024 1024" xmlns="http://www.w3.org/2000/svg" role="img" aria-label="Fran Fashion">
  <defs>
    <linearGradient id="g1" x1="170" y1="120" x2="880" y2="920" gradientUnits="userSpaceOnUse">
      <stop offset="0" stop-color="#AA3BFF"/>
      <stop offset="0.55" stop-color="#C455FF"/>
      <stop offset="1" stop-color="#FF4BD8"/>
    </linearGradient>
    <linearGradient id="g2" x1="240" y1="220" x2="800" y2="800" gradientUnits="userSpaceOnUse">
      <stop offset="0" stop-color="#FFD38A" stop-opacity="0.9"/>
      <stop offset="1" stop-color="#D4AF37" stop-opacity="0.35"/>
    </linearGradient>
    <filter id="soft" x="-30%" y="-30%" width="160%" height="160%">
      <feDropShadow dx="0" dy="18" stdDeviation="22" flood-color="#000000" flood-opacity="0.25"/>
    </filter>
  </defs>

  <rect x="96" y="96" width="832" height="832" rx="220" fill="url(#g1)" filter="url(#soft)"/>
  <rect x="128" y="128" width="768" height="768" rx="204" fill="rgba(255,255,255,0.08)"/>

  <!-- Monograma "FF" com asas abstratas (original) -->
  <g transform="translate(0,0)">
    <path d="M333 352c0-44 36-80 80-80h268c22 0 40 18 40 40s-18 40-40 40H431c-10 0-18 8-18 18v42h230c22 0 40 18 40 40s-18 40-40 40H413v200c0 22-18 40-40 40s-40-18-40-40V352z" fill="white" opacity="0.92"/>
    <path d="M505 412c0-22 18-40 40-40h168c22 0 40 18 40 40s-18 40-40 40H585v40h112c22 0 40 18 40 40s-18 40-40 40H585v120c0 22-18 40-40 40s-40-18-40-40V412z" fill="white" opacity="0.92"/>

    <!-- Asas/butterfly abstract -->
    <path d="M274 612c-6-54 26-108 78-132 36-16 78-14 112 4-58 18-96 66-90 120 3 30 19 57 42 75-64 2-130-24-142-67z" fill="url(#g2)" opacity="0.78"/>
    <path d="M750 612c6-54-26-108-78-132-36-16-78-14-112 4 58 18 96 66 90 120-3 30-19 57-42 75 64 2 130-24 142-67z" fill="url(#g2)" opacity="0.78"/>
  </g>

  <!-- Pequeno brilho -->
  <path d="M284 244c40-32 90-54 152-66" stroke="rgba(255,255,255,0.35)" stroke-width="18" stroke-linecap="round"/>
</svg>

